<svg xmlns="http://www.w3.org/2000/svg" xmlns:xlink="http://www.w3.org/1999/xlink" width="86.486" height="26.828" viewBox="0 0 86.486 26.828">
  <defs>
    <linearGradient id="linear-gradient" y1="0.5" x2="1" y2="0.5" gradientUnits="objectBoundingBox">
      <stop offset="0" stop-color="#4981f2"/>
      <stop offset="0.196" stop-color="#437bef"/>
      <stop offset="0.449" stop-color="#356be9"/>
      <stop offset="0.731" stop-color="#1d50de"/>
      <stop offset="1" stop-color="#0031d1"/>
    </linearGradient>
  </defs>
  <g id="Group_141" data-name="Group 141" transform="translate(-249.887 -175.999)">
    <path id="Path_172" data-name="Path 172" d="M383.36,186.752c-1.153-1.389-4.917-2-4.917-2s-4.479-.648-10.206-1.247c-6.2-.649-7.307.136-9.661,1.148-1.164.5-3.862,1.625-4.408,1.832,5.926,4.507,12.78,9.027,18.607,8.005,1.183-.646,4.107-2.143,5.078-2.547,4.341-1.8,8.457,1.848,8.457,1.848S384.513,188.141,383.36,186.752Z" transform="translate(-49.937 -3.479)" fill="#fff"/>
    <path id="Path_173" data-name="Path 173" d="M295.2,186.736c-12.1-11.321-24.408-4.681-24.408-4.681l-4.533,2.274a22.007,22.007,0,0,1,4.844-.676c4.635-.344,10.932.71,17.177,6.554,9.751,9.126,17.484,12.859,22.785,12.932a11.531,11.531,0,0,0,3.186-1.059l4.889-2.452C313.84,200.133,305.69,196.551,295.2,186.736Z" transform="translate(-7.842 -1.974)" fill="url(#linear-gradient)"/>
    <path id="Path_174" data-name="Path 174" d="M278.183,195.57c-12.1-11.321-24.408-4.681-24.408-4.681l-3.889,1.951c1.555-.756,12.965-5.736,24.223,4.774,15.207,14.2,22.711,11.353,28.014,10.849h0C296.82,208.967,288.67,205.385,278.183,195.57Z" transform="translate(0 -6.204)" fill="url(#linear-gradient)"/>
    <path id="Path_175" data-name="Path 175" d="M316.624,183.539h0l0,0c-.086-.072-.173-.147-.259-.22a35.033,35.033,0,0,0-32.484-5.563c4.62-1.182,13.061-1.721,21.4,6.087,7.993,7.48,14.656,11.418,19.78,12.73a10.717,10.717,0,0,0,6.808-1.065l4.893-2.454C332.118,193.49,325.289,190.8,316.624,183.539Z" transform="translate(-16.276)" fill="url(#linear-gradient)"/>
  </g>
</svg>
