<svg xmlns="http://www.w3.org/2000/svg" width="597.2" height="226.941" viewBox="0 0 597.2 226.941">
  <g id="Group_145" data-name="Group 145" transform="translate(-421 -257)">
    <g id="Group_144" data-name="Group 144" transform="translate(421 257)" opacity="0.1">
      <path id="Path_178" data-name="Path 178" d="M-1258.37,1552.556c-102.33-95.77-206.47-39.6-206.47-39.6l-38.346,19.233a186.054,186.054,0,0,1,40.978-5.716c39.214-2.911,92.481,6.007,145.3,55.444,82.485,77.2,147.9,108.775,192.743,109.4a97.635,97.635,0,0,0,26.949-8.957l41.357-20.744C-1100.716,1665.88-1169.662,1635.578-1258.37,1552.556Z" transform="translate(1575.376 -1478.419)" fill="#4981f2"/>
      <path id="Path_179" data-name="Path 179" d="M-1388.88,1620.021c-102.33-95.77-206.471-39.6-206.471-39.6l-32.894,16.5c13.149-6.4,109.67-48.518,204.9,40.387,128.642,120.094,192.115,96.038,236.977,91.771h0C-1231.226,1733.344-1300.172,1703.042-1388.88,1620.021Z" transform="translate(1628.245 -1506.94)" fill="#4981f2"/>
      <path id="Path_180" data-name="Path 180" d="M-1091.661,1528.9h0l-.039-.035c-.725-.607-1.462-1.247-2.19-1.862-16.222-13.449-122.694-94.705-274.792-47.06,39.081-10,110.49-14.559,181.063,51.49,67.609,63.275,123.976,96.589,167.324,107.688,4.643,1.01,29.078,5.288,57.588-9.011l41.393-20.765C-960.591,1613.077-1018.357,1590.33-1091.661,1528.9Z" transform="translate(1518.515 -1465.113)" fill="#4981f2"/>
    </g>
  </g>
</svg>
